<svg id="visual" viewBox="0 0 900 600" width="900" height="600" xmlns="http://www.w3.org/2000/svg" xmlns:xlink="http://www.w3.org/1999/xlink" version="1.1"><g stroke-width="1" stroke-linejoin="bevel"><path d="M400 276L511 216L394 235Z" fill="#43a6b7" stroke="#43a6b7"></path><path d="M400 276L505 330L511 216Z" fill="#43a6b7" stroke="#43a6b7"></path><path d="M511 216L438 114L394 235Z" fill="#3c9fb5" stroke="#3c9fb5"></path><path d="M390 385L479 390L505 330Z" fill="#297ea6" stroke="#297ea6"></path><path d="M264 270L390 385L400 276Z" fill="#43a6b7" stroke="#43a6b7"></path><path d="M400 276L390 385L505 330Z" fill="#43a6b7" stroke="#43a6b7"></path><path d="M637 316L619 186L511 216Z" fill="#3c9fb5" stroke="#3c9fb5"></path><path d="M511 216L486 73L438 114Z" fill="#2c8bad" stroke="#2c8bad"></path><path d="M637 316L511 216L505 330Z" fill="#3c9fb5" stroke="#3c9fb5"></path><path d="M601 105L486 73L511 216Z" fill="#3698b3" stroke="#3698b3"></path><path d="M584 497L564 396L479 390Z" fill="#3c9fb5" stroke="#3c9fb5"></path><path d="M479 390L564 396L505 330Z" fill="#54b2bb" stroke="#54b2bb"></path><path d="M263 215L264 270L394 235Z" fill="#54b2bb" stroke="#54b2bb"></path><path d="M394 235L264 270L400 276Z" fill="#54b2bb" stroke="#54b2bb"></path><path d="M564 396L637 316L505 330Z" fill="#3092b0" stroke="#3092b0"></path><path d="M334 91L394 235L438 114Z" fill="#3092b0" stroke="#3092b0"></path><path d="M334 91L263 215L394 235Z" fill="#66bfbf" stroke="#66bfbf"></path><path d="M416 0L334 91L438 114Z" fill="#54b2bb" stroke="#54b2bb"></path><path d="M619 186L601 105L511 216Z" fill="#43a6b7" stroke="#43a6b7"></path><path d="M264 270L305 415L390 385Z" fill="#3c9fb5" stroke="#3c9fb5"></path><path d="M390 385L400 490L479 390Z" fill="#3698b3" stroke="#3698b3"></path><path d="M637 316L683 195L619 186Z" fill="#297ea6" stroke="#297ea6"></path><path d="M619 186L681 94L601 105Z" fill="#297ea6" stroke="#297ea6"></path><path d="M564 396L675 332L637 316Z" fill="#4bacb9" stroke="#4bacb9"></path><path d="M637 316L675 332L683 195Z" fill="#3092b0" stroke="#3092b0"></path><path d="M305 415L400 490L390 385Z" fill="#66bfbf" stroke="#66bfbf"></path><path d="M486 73L416 0L438 114Z" fill="#2c8bad" stroke="#2c8bad"></path><path d="M520 0L416 0L486 73Z" fill="#2c8bad" stroke="#2c8bad"></path><path d="M622 0L520 0L601 105Z" fill="#66bfbf" stroke="#66bfbf"></path><path d="M601 105L520 0L486 73Z" fill="#66bfbf" stroke="#66bfbf"></path><path d="M263 215L187 273L264 270Z" fill="#66bfbf" stroke="#66bfbf"></path><path d="M264 270L237 409L305 415Z" fill="#3698b3" stroke="#3698b3"></path><path d="M166 226L187 273L263 215Z" fill="#2c8bad" stroke="#2c8bad"></path><path d="M683 195L681 94L619 186Z" fill="#54b2bb" stroke="#54b2bb"></path><path d="M187 273L237 409L264 270Z" fill="#66bfbf" stroke="#66bfbf"></path><path d="M305 415L316 485L400 490Z" fill="#3c9fb5" stroke="#3c9fb5"></path><path d="M227 480L316 485L305 415Z" fill="#3092b0" stroke="#3092b0"></path><path d="M416 0L323 0L334 91Z" fill="#3698b3" stroke="#3698b3"></path><path d="M167 102L166 226L263 215Z" fill="#3092b0" stroke="#3092b0"></path><path d="M464 534L584 497L479 390Z" fill="#66bfbf" stroke="#66bfbf"></path><path d="M695 463L734 391L675 332Z" fill="#43a6b7" stroke="#43a6b7"></path><path d="M462 600L464 534L391 600Z" fill="#297ea6" stroke="#297ea6"></path><path d="M400 490L464 534L479 390Z" fill="#3092b0" stroke="#3092b0"></path><path d="M167 102L263 215L334 91Z" fill="#3698b3" stroke="#3698b3"></path><path d="M61 374L227 480L237 409Z" fill="#5db9bd" stroke="#5db9bd"></path><path d="M681 94L622 0L601 105Z" fill="#54b2bb" stroke="#54b2bb"></path><path d="M695 463L675 332L564 396Z" fill="#297ea6" stroke="#297ea6"></path><path d="M675 332L819 220L683 195Z" fill="#2a85aa" stroke="#2a85aa"></path><path d="M768 80L705 0L681 94Z" fill="#3698b3" stroke="#3698b3"></path><path d="M614 600L695 463L584 497Z" fill="#5db9bd" stroke="#5db9bd"></path><path d="M584 497L695 463L564 396Z" fill="#3c9fb5" stroke="#3c9fb5"></path><path d="M214 0L167 102L334 91Z" fill="#43a6b7" stroke="#43a6b7"></path><path d="M237 409L227 480L305 415Z" fill="#43a6b7" stroke="#43a6b7"></path><path d="M391 600L464 534L400 490Z" fill="#43a6b7" stroke="#43a6b7"></path><path d="M114 303L237 409L187 273Z" fill="#66bfbf" stroke="#66bfbf"></path><path d="M323 0L214 0L334 91Z" fill="#54b2bb" stroke="#54b2bb"></path><path d="M76 190L114 303L166 226Z" fill="#43a6b7" stroke="#43a6b7"></path><path d="M166 226L114 303L187 273Z" fill="#3698b3" stroke="#3698b3"></path><path d="M768 80L681 94L683 195Z" fill="#3698b3" stroke="#3698b3"></path><path d="M681 94L705 0L622 0Z" fill="#43a6b7" stroke="#43a6b7"></path><path d="M391 600L400 490L337 600Z" fill="#297ea6" stroke="#297ea6"></path><path d="M464 534L614 600L584 497Z" fill="#2a85aa" stroke="#2a85aa"></path><path d="M819 220L768 80L683 195Z" fill="#2c8bad" stroke="#2c8bad"></path><path d="M337 600L400 490L316 485Z" fill="#3698b3" stroke="#3698b3"></path><path d="M836 272L819 220L675 332Z" fill="#66bfbf" stroke="#66bfbf"></path><path d="M101 0L112 112L167 102Z" fill="#297ea6" stroke="#297ea6"></path><path d="M167 102L112 112L166 226Z" fill="#2c8bad" stroke="#2c8bad"></path><path d="M227 480L337 600L316 485Z" fill="#66bfbf" stroke="#66bfbf"></path><path d="M817 471L809 386L734 391Z" fill="#3092b0" stroke="#3092b0"></path><path d="M734 391L836 272L675 332Z" fill="#3698b3" stroke="#3698b3"></path><path d="M809 386L836 272L734 391Z" fill="#2a85aa" stroke="#2a85aa"></path><path d="M112 112L76 190L166 226Z" fill="#3092b0" stroke="#3092b0"></path><path d="M462 600L614 600L464 534Z" fill="#3698b3" stroke="#3698b3"></path><path d="M695 463L817 471L734 391Z" fill="#4bacb9" stroke="#4bacb9"></path><path d="M900 0L776 0L768 80Z" fill="#3092b0" stroke="#3092b0"></path><path d="M768 80L776 0L705 0Z" fill="#4bacb9" stroke="#4bacb9"></path><path d="M900 136L768 80L819 220Z" fill="#3c9fb5" stroke="#3c9fb5"></path><path d="M0 326L61 374L114 303Z" fill="#3092b0" stroke="#3092b0"></path><path d="M114 303L61 374L237 409Z" fill="#5db9bd" stroke="#5db9bd"></path><path d="M227 480L181 600L337 600Z" fill="#66bfbf" stroke="#66bfbf"></path><path d="M730 600L817 471L695 463Z" fill="#2c8bad" stroke="#2c8bad"></path><path d="M900 370L900 263L836 272Z" fill="#66bfbf" stroke="#66bfbf"></path><path d="M0 130L0 192L76 190Z" fill="#66bfbf" stroke="#66bfbf"></path><path d="M214 0L101 0L167 102Z" fill="#4bacb9" stroke="#4bacb9"></path><path d="M900 370L836 272L809 386Z" fill="#2c8bad" stroke="#2c8bad"></path><path d="M836 272L900 214L819 220Z" fill="#2a85aa" stroke="#2a85aa"></path><path d="M900 263L900 214L836 272Z" fill="#3092b0" stroke="#3092b0"></path><path d="M614 600L730 600L695 463Z" fill="#66bfbf" stroke="#66bfbf"></path><path d="M63 534L181 600L227 480Z" fill="#3698b3" stroke="#3698b3"></path><path d="M900 214L900 136L819 220Z" fill="#3698b3" stroke="#3698b3"></path><path d="M0 130L76 190L112 112Z" fill="#5db9bd" stroke="#5db9bd"></path><path d="M76 190L0 326L114 303Z" fill="#2c8bad" stroke="#2c8bad"></path><path d="M900 467L809 386L817 471Z" fill="#2a85aa" stroke="#2a85aa"></path><path d="M900 467L900 370L809 386Z" fill="#3698b3" stroke="#3698b3"></path><path d="M0 192L0 326L76 190Z" fill="#2a85aa" stroke="#2a85aa"></path><path d="M61 374L63 534L227 480Z" fill="#297ea6" stroke="#297ea6"></path><path d="M0 0L0 130L112 112Z" fill="#3698b3" stroke="#3698b3"></path><path d="M0 326L0 386L61 374Z" fill="#5db9bd" stroke="#5db9bd"></path><path d="M0 386L63 534L61 374Z" fill="#3092b0" stroke="#3092b0"></path><path d="M824 600L900 467L817 471Z" fill="#3698b3" stroke="#3698b3"></path><path d="M900 136L900 0L768 80Z" fill="#2a85aa" stroke="#2a85aa"></path><path d="M730 600L824 600L817 471Z" fill="#5db9bd" stroke="#5db9bd"></path><path d="M101 0L0 0L112 112Z" fill="#2c8bad" stroke="#2c8bad"></path><path d="M63 534L63 600L181 600Z" fill="#2c8bad" stroke="#2c8bad"></path><path d="M0 600L63 600L63 534Z" fill="#2c8bad" stroke="#2c8bad"></path><path d="M0 386L0 531L63 534Z" fill="#4bacb9" stroke="#4bacb9"></path><path d="M824 600L900 600L900 467Z" fill="#297ea6" stroke="#297ea6"></path><path d="M0 531L0 600L63 534Z" fill="#3092b0" stroke="#3092b0"></path></g></svg>